{"title":"THE CABLE GUY -1996 IN H.264 BY WINKER","uid":5293548,"size":944568249,"categoryP":"video","categoryS":"movies","magnet":"?xt=urn:btih:e9d1419a5904fe9268ff5f34ec1196be8f4024bb&amp;dn=THE+CABLE+GUY+-1996+IN+H.264+BY+WINKER&amp;tr=udp%3A%2F%2Ftracker.openbittorrent.com%3A80&amp;tr=udp%3A%2F%2Fopen.demonii.com%3A1337&amp;tr=udp%3A%2F%2Ftracker.coppersurfer.tk%3A6969&amp;tr=udp%3A%2F%2Fexodus.desync.com%3A6969","seeders":1,"leechers":0,"uploader":"alanwatson","files":-1,"time":1263982768,"description":"There's No Such Thing as Free Cable\n\nThe manic madness of Jim Carrey strikes again in this totally wired, out of control comedy! Slip the cable guy fifty bucks and you'll get the movie channels for free - it's a time honoured urban ritual. But when Steven Kovacs (Matthew Broderick) moves into his new apartment he picks the wrong cable guy - this guy doesn't want fifty bucks; he just wants a friend for life. And he won't take no for an answer.\n\n\n\nFormat                           : MPEG-4\nFormat profile                   : Base Media / Version 2\nCodec ID                         : mp42\nFile size                        : 900 MiB\nDuration                         : 1h 31mn\nOverall bit rate                 : 1 370 Kbps\nEncoded date                     : UTC 2010-01-16 07:55:14\nTagged date                      : UTC 2010-01-16 12:31:15\nWriting application              : HandBrake 0.9.3 2008112300\n\nVideo\nID                               : 1\nFormat                           : AVC\nFormat/Info                      : Advanced Video Codec\nFormat profile                   : &lt;a class=&quot;__cf_email__&quot; href=&quot;/cdn-cgi/l/email-protection&quot; data-cfemail=&quot;4b062a22250b077f657b&quot;&gt;[email&amp;#160;protected]&lt;/a&gt;&lt;script cf-hash='f9e31' type=&quot;text/javascript&quot;&gt;\n/* &lt;![CDATA[ */!function(){try{var t=&quot;currentScript&quot;in document?document.currentScript:function(){for(var t=document.getElementsByTagName(&quot;script&quot;),e=t.length;e--;)if(t[e].getAttribute(&quot;cf-hash&quot;))return t[e]}();if(t&amp;&amp;t.previousSibling){var e,r,n,i,c=t.previousSibling,a=c.getAttribute(&quot;data-cfemail&quot;);if(a){for(e=&quot;&quot;,r=parseInt(a.substr(0,2),16),n=2;a.length-n;n+=2)i=parseInt(a.substr(n,2),16)^r,e+=String.fromCharCode(i);e=document.createTextNode(e),c.parentNode.replaceChild(e,c)}}}catch(u){}}();/* ]]&gt; */&lt;/script&gt;\nFormat settings, CABAC           : Yes\nFormat settings, ReFrames        : 3 frames\nCodec ID                         : avc1\nCodec ID/Info                    : Advanced Video Coding\nDuration                         : 1h 31mn\nBit rate mode                    : Variable\nBit rate                         : 1 206 Kbps\nWidth                            : 704 pixels\nHeight                           : 428 pixels\nDisplay aspect ratio             : 2.35:1\nFrame rate mode                  : Variable\nFrame rate                       : 25.000 fps\nMinimum frame rate               : 12.500 fps\nMaximum frame rate               : 25.000 fps\nResolution                       : 24 bits\nColorimetry                      : 4:2:0\nScan type                        : Progressive\nBits/(Pixel*Frame)               : 0.160\nStream size                      : 792 MiB (88%)\nWriting library                  : x264 core 65\n\n\nAudio\nID                               : 2\nFormat                           : AAC\nFormat/Info                      : Advanced Audio Codec\nFormat version                   : Version 4\nFormat profile                   : LC\nFormat settings, SBR             : No\nCodec ID                         : 40\nDuration                         : 1h 31mn\nBit rate mode                    : Variable\nBit rate                         : 160 Kbps\nMaximum bit rate                 : 214 Kbps\nChannel(s)                       : 2 channels\nChannel positions                : L R\nSampling rate                    : 48.0 KHz\nResolution                       : 16 bits\nStream size                      : 105 MiB (12%)\nLanguage                         : English\nEncoded date                     : UTC 2010-01-16 07:55:14\nTagged date                      : UTC 2010-01-16 12:31:05\n\n","torrent":{"xt":"urn:btih:e9d1419a5904fe9268ff5f34ec1196be8f4024bb","amp;dn":"THE+CABLE+GUY+-1996+IN+H.264+BY+WINKER","amp;tr":["udp%3A%2F%2Ftracker.openbittorrent.com%3A80","udp%3A%2F%2Fopen.demonii.com%3A1337","udp%3A%2F%2Ftracker.coppersurfer.tk%3A6969","udp%3A%2F%2Fexodus.desync.com%3A6969"],"infoHash":"e9d1419a5904fe9268ff5f34ec1196be8f4024bb","infoHashBuffer":{"type":"Buffer","data":[233,209,65,154,89,4,254,146,104,255,95,52,236,17,150,190,143,64,36,187]},"announce":[],"urlList":[]}}